<svg width="170" height="169" viewBox="0 0 170 169" fill="none" xmlns="http://www.w3.org/2000/svg">
<path d="M78.4575 17.1975C80.7456 11.1829 89.2544 11.1829 91.5425 17.1975L94.0409 23.7646C95.7805 28.3372 101.555 29.7604 105.22 26.52L110.484 21.8662C115.305 17.6038 122.839 21.558 122.07 27.9471L121.23 34.923C120.646 39.7803 125.097 43.7238 129.848 42.5579L136.672 40.8834C142.922 39.3499 147.756 46.3524 144.105 51.6522L140.12 57.4389C137.345 61.4681 139.454 67.0285 144.203 68.2042L151.023 69.8927C157.27 71.4393 158.295 79.8859 152.6 82.8824L146.382 86.1541C142.053 88.4322 141.336 94.3357 144.995 97.5837L150.249 102.248C155.061 106.521 152.044 114.477 145.609 114.483L138.583 114.49C133.69 114.496 130.312 119.39 132.042 123.966L134.527 130.538C136.803 136.557 130.434 142.2 124.733 139.215L118.508 135.956C114.174 133.687 108.908 136.451 108.313 141.307L107.459 148.281C106.677 154.669 98.4152 156.705 94.7541 151.413L90.7568 145.634C87.9734 141.611 82.0266 141.611 79.2432 145.634L75.2459 151.413C71.5848 156.705 63.3233 154.669 62.541 148.281L61.6869 141.307C61.0922 136.451 55.8265 133.687 51.4922 135.956L45.2674 139.215C39.5662 142.2 33.1973 136.558 35.473 130.538L37.9578 123.966C39.6879 119.39 36.3097 114.496 31.4173 114.49L24.3911 114.483C17.9559 114.477 14.9387 106.521 19.7511 102.248L25.0055 97.5837C28.6641 94.3357 27.9473 88.4322 23.6177 86.1541L17.3996 82.8824C11.7046 79.8859 12.7302 71.4393 18.9769 69.8927L25.7972 68.2042C30.5461 67.0285 32.6549 61.4681 29.8799 57.4389L25.8946 51.6522C22.2444 46.3524 27.0779 39.3499 33.3277 40.8834L40.1515 42.5579C44.9029 43.7238 49.3542 39.7803 48.7696 34.923L47.9299 27.9471C47.1608 21.558 54.6949 17.6038 59.5161 21.8661L64.7802 26.52C68.4455 29.7604 74.2195 28.3372 75.9591 23.7646L78.4575 17.1975Z" fill="#3B5FDB"/>
<circle cx="85" cy="84.5" r="41.5" fill="white"/>
<g clip-path="url(#clip0_77_7002)">
<path d="M83.65 67.2667L71.9833 72.4501C70.7833 72.9834 70 74.1834 70 75.5001V83.3334C70 92.5834 76.4 101.233 85 103.333C93.6 101.233 100 92.5834 100 83.3334V75.5001C100 74.1834 99.2167 72.9834 98.0167 72.4501L86.35 67.2667C85.5 66.8834 84.5 66.8834 83.65 67.2667ZM80.4833 92.1501L76.1667 87.8334C75.5167 87.1834 75.5167 86.1334 76.1667 85.4834C76.8167 84.8334 77.8667 84.8334 78.5167 85.4834L81.6667 88.6167L91.4667 78.8167C92.1167 78.1667 93.1667 78.1667 93.8167 78.8167C94.4667 79.4667 94.4667 80.5167 93.8167 81.1667L82.8333 92.1501C82.2 92.8001 81.1333 92.8001 80.4833 92.1501Z" fill="#3B5FDB"/>
</g>
<circle cx="85" cy="85" r="36" stroke="#3B5FDB" stroke-width="2"/>
<defs>
<clipPath id="clip0_77_7002">
<rect width="40" height="40" fill="white" transform="translate(65 65)"/>
</clipPath>
</defs>
</svg>
