<svg width="40" height="40" viewBox="0 0 40 40" fill="none" xmlns="http://www.w3.org/2000/svg">
<path d="M36 0H4C1.8 0 0.02 1.8 0.02 4L0 40L8 32H36C38.2 32 40 30.2 40 28V4C40 1.8 38.2 0 36 0ZM12 24H8V20H12V24ZM12 18H8V14H12V18ZM12 12H8V8H12V12ZM24 24H18C16.9 24 16 23.1 16 22C16 20.9 16.9 20 18 20H24C25.1 20 26 20.9 26 22C26 23.1 25.1 24 24 24ZM30 18H18C16.9 18 16 17.1 16 16C16 14.9 16.9 14 18 14H30C31.1 14 32 14.9 32 16C32 17.1 31.1 18 30 18ZM30 12H18C16.9 12 16 11.1 16 10C16 8.9 16.9 8 18 8H30C31.1 8 32 8.9 32 10C32 11.1 31.1 12 30 12Z" fill="#3B5FDB"/>
</svg>
