<svg width="25" height="42" viewBox="0 0 25 42" fill="none" xmlns="http://www.w3.org/2000/svg">
<path d="M13.5332 18.4333C8.23658 17.0567 6.53325 15.6333 6.53325 13.4167C6.53325 10.8733 8.88991 9.1 12.8332 9.1C16.9866 9.1 18.5266 11.0833 18.6666 14H23.8232C23.6599 9.98667 21.2099 6.3 16.3332 5.11V0H9.33325V5.04C4.80658 6.02 1.16658 8.96 1.16658 13.4633C1.16658 18.8533 5.62325 21.5367 12.1332 23.1C17.9666 24.5 19.1332 26.5533 19.1332 28.7233C19.1332 30.3333 17.9899 32.9 12.8332 32.9C8.02658 32.9 6.13658 30.7533 5.87992 28H0.746582C1.02658 33.11 4.85325 35.98 9.33325 36.9367V42H16.3332V36.9833C20.8832 36.12 24.4999 33.4833 24.4999 28.7C24.4999 22.0733 18.8299 19.81 13.5332 18.4333Z" fill="#3B5FDB"/>
</svg>
