<svg width="20" height="20" viewBox="0 0 20 20" fill="none" xmlns="http://www.w3.org/2000/svg">
<g clip-path="url(#clip0_77_7919)">
<g clip-path="url(#clip1_77_7919)">
<path d="M9.99998 4.25C5.83331 4.25 2.27498 6.84167 0.833313 10.5C2.27498 14.1583 5.83331 16.75 9.99998 16.75C14.1666 16.75 17.725 14.1583 19.1666 10.5C17.725 6.84167 14.1666 4.25 9.99998 4.25ZM9.99998 14.6667C7.69998 14.6667 5.83331 12.8 5.83331 10.5C5.83331 8.2 7.69998 6.33333 9.99998 6.33333C12.3 6.33333 14.1666 8.2 14.1666 10.5C14.1666 12.8 12.3 14.6667 9.99998 14.6667ZM9.99998 8C8.61665 8 7.49998 9.11667 7.49998 10.5C7.49998 11.8833 8.61665 13 9.99998 13C11.3833 13 12.5 11.8833 12.5 10.5C12.5 9.11667 11.3833 8 9.99998 8Z" fill="#95979D"/>
</g>
<line x1="-2.53033" y1="21.9697" x2="22.4697" y2="-3.03033" stroke="#95979D" stroke-width="1.5"/>
</g>
<defs>
<clipPath id="clip0_77_7919">
<rect width="20" height="20" fill="white"/>
</clipPath>
<clipPath id="clip1_77_7919">
<rect width="20" height="20" fill="white" transform="translate(0 0.5)"/>
</clipPath>
</defs>
</svg>
