<svg width="20" height="13" viewBox="0 0 20 13" fill="none" xmlns="http://www.w3.org/2000/svg">
<path d="M9.99998 0.25C5.83331 0.25 2.27498 2.84167 0.833313 6.5C2.27498 10.1583 5.83331 12.75 9.99998 12.75C14.1666 12.75 17.725 10.1583 19.1666 6.5C17.725 2.84167 14.1666 0.25 9.99998 0.25ZM9.99998 10.6667C7.69998 10.6667 5.83331 8.8 5.83331 6.5C5.83331 4.2 7.69998 2.33333 9.99998 2.33333C12.3 2.33333 14.1666 4.2 14.1666 6.5C14.1666 8.8 12.3 10.6667 9.99998 10.6667ZM9.99998 4C8.61665 4 7.49998 5.11667 7.49998 6.5C7.49998 7.88333 8.61665 9 9.99998 9C11.3833 9 12.5 7.88333 12.5 6.5C12.5 5.11667 11.3833 4 9.99998 4Z" fill="#95979D"/>
</svg>
