<svg width="30" height="45" viewBox="0 0 30 45" fill="none" xmlns="http://www.w3.org/2000/svg">
<path d="M0 0H26C28.2091 0 30 1.79086 30 4V41C30 43.2091 28.2091 45 26 45H0V0Z" fill="white"/>
<path d="M15.5561 24.4496H6.92294V22.3097H15.5234C16.264 22.3097 16.8765 22.1871 17.3612 21.9421C17.8458 21.6916 18.2051 21.3486 18.4393 20.913C18.6734 20.4719 18.7905 19.9656 18.7905 19.3938C18.7905 18.8275 18.6734 18.3211 18.4393 17.8746C18.2051 17.4281 17.8485 17.0769 17.3693 16.821C16.8902 16.5597 16.2857 16.429 15.5561 16.429H11.995V31H9.4794V14.2727H15.5561C16.8248 14.2727 17.8839 14.5014 18.7333 14.9588C19.5882 15.4162 20.228 16.0315 20.6527 16.8047C21.0829 17.5779 21.2979 18.4382 21.2979 19.3857C21.2979 20.344 21.0801 21.207 20.6445 21.9748C20.2144 22.7371 19.5719 23.3415 18.717 23.788C17.8675 24.229 16.8139 24.4496 15.5561 24.4496ZM15.6786 25.8544V28.0025H6.92294V25.8544H15.6786Z" fill="#95979D"/>
</svg>
