<svg width="76" height="27" viewBox="0 0 76 27" fill="none" xmlns="http://www.w3.org/2000/svg">
<g clip-path="url(#clip0_264_97)">
<path d="M68.7 25.0016C70.7 25.0016 72.4 23.3016 72.4 21.3016C72.4 19.3016 70.7 17.6016 68.7 17.6016C66.7 17.6016 65 19.3016 65 21.3016C65 23.3016 66.7 25.0016 68.7 25.0016Z" fill="#3B5FDB"/>
<path d="M12.7255 10.1818V24H10.8093L3.78551 13.8658H3.65731V24H1.57244V10.1818H3.50213L10.5327 20.3295H10.6609V10.1818H12.7255ZM18.6493 24.2294C17.9926 24.2294 17.3989 24.108 16.8681 23.8651C16.3373 23.6177 15.9167 23.2601 15.6064 22.7923C15.3005 22.3245 15.1475 21.7509 15.1475 21.0717C15.1475 20.487 15.26 20.0057 15.4849 19.6278C15.7098 19.25 16.0134 18.9509 16.3958 18.7305C16.7781 18.5101 17.2054 18.3436 17.6777 18.2312C18.15 18.1187 18.6313 18.0333 19.1216 17.9748C19.7424 17.9028 20.2462 17.8443 20.633 17.7994C21.0198 17.7499 21.301 17.6712 21.4764 17.5632C21.6518 17.4553 21.7395 17.2798 21.7395 17.0369V16.9897C21.7395 16.4004 21.5731 15.9439 21.2402 15.62C20.9119 15.2962 20.4216 15.1342 19.7694 15.1342C19.0901 15.1342 18.5549 15.2849 18.1635 15.5863C17.7767 15.8832 17.5091 16.2138 17.3606 16.5781L15.4647 16.1463C15.6896 15.5166 16.0179 15.0083 16.4497 14.6214C16.8861 14.2301 17.3876 13.9467 17.9544 13.7713C18.5211 13.5914 19.1171 13.5014 19.7424 13.5014C20.1562 13.5014 20.5948 13.5509 21.0581 13.6499C21.5259 13.7443 21.9622 13.9197 22.367 14.1761C22.7763 14.4325 23.1114 14.7991 23.3723 15.2759C23.6332 15.7482 23.7637 16.3622 23.7637 17.1179V24H21.7935V22.5831H21.7125C21.5821 22.844 21.3864 23.1004 21.1255 23.3523C20.8646 23.6042 20.5295 23.8133 20.1202 23.9798C19.7109 24.1462 19.2206 24.2294 18.6493 24.2294ZM19.0879 22.6101C19.6457 22.6101 20.1225 22.4999 20.5183 22.2795C20.9186 22.0591 21.2222 21.7712 21.4292 21.4158C21.6406 21.056 21.7463 20.6714 21.7463 20.2621V18.9261C21.6743 18.9981 21.5349 19.0656 21.3279 19.1286C21.1255 19.187 20.8939 19.2388 20.633 19.2837C20.3721 19.3242 20.118 19.3625 19.8706 19.3984C19.6232 19.4299 19.4163 19.4569 19.2498 19.4794C18.8585 19.5289 18.5009 19.6121 18.177 19.729C17.8577 19.846 17.6013 20.0147 17.4078 20.2351C17.2189 20.451 17.1245 20.7389 17.1245 21.0987C17.1245 21.598 17.3089 21.9759 17.6777 22.2322C18.0466 22.4841 18.5166 22.6101 19.0879 22.6101ZM26.2633 24V22.6168L31.877 15.4851V15.3906H26.4455V13.6364H34.3936V15.1072L28.9959 22.1513V22.2457H34.5826V24H26.2633ZM45.8569 13.6364L42.0987 24H39.9396L36.1747 13.6364H38.3406L40.9652 21.6115H41.0732L43.6911 13.6364H45.8569ZM50.5004 24.2294C49.8437 24.2294 49.25 24.108 48.7192 23.8651C48.1884 23.6177 47.7678 23.2601 47.4575 22.7923C47.1516 22.3245 46.9987 21.7509 46.9987 21.0717C46.9987 20.487 47.1111 20.0057 47.336 19.6278C47.5609 19.25 47.8646 18.9509 48.2469 18.7305C48.6292 18.5101 49.0566 18.3436 49.5289 18.2312C50.0012 18.1187 50.4825 18.0333 50.9727 17.9748C51.5935 17.9028 52.0973 17.8443 52.4841 17.7994C52.8709 17.7499 53.1521 17.6712 53.3275 17.5632C53.5029 17.4553 53.5906 17.2798 53.5906 17.0369V16.9897C53.5906 16.4004 53.4242 15.9439 53.0914 15.62C52.763 15.2962 52.2727 15.1342 51.6205 15.1342C50.9413 15.1342 50.406 15.2849 50.0147 15.5863C49.6278 15.8832 49.3602 16.2138 49.2117 16.5781L47.3158 16.1463C47.5407 15.5166 47.8691 15.0083 48.3009 14.6214C48.7372 14.2301 49.2387 13.9467 49.8055 13.7713C50.3723 13.5914 50.9683 13.5014 51.5935 13.5014C52.0073 13.5014 52.4459 13.5509 52.9092 13.6499C53.377 13.7443 53.8133 13.9197 54.2181 14.1761C54.6275 14.4325 54.9626 14.7991 55.2235 15.2759C55.4843 15.7482 55.6148 16.3622 55.6148 17.1179V24H53.6446V22.5831H53.5637C53.4332 22.844 53.2375 23.1004 52.9767 23.3523C52.7158 23.6042 52.3807 23.8133 51.9713 23.9798C51.562 24.1462 51.0717 24.2294 50.5004 24.2294ZM50.939 22.6101C51.4968 22.6101 51.9736 22.4999 52.3694 22.2795C52.7697 22.0591 53.0734 21.7712 53.2803 21.4158C53.4917 21.056 53.5974 20.6714 53.5974 20.2621V18.9261C53.5254 18.9981 53.386 19.0656 53.1791 19.1286C52.9767 19.187 52.745 19.2388 52.4841 19.2837C52.2232 19.3242 51.9691 19.3625 51.7217 19.3984C51.4743 19.4299 51.2674 19.4569 51.1009 19.4794C50.7096 19.5289 50.352 19.6121 50.0281 19.729C49.7088 19.846 49.4524 20.0147 49.259 20.2351C49.07 20.451 48.9756 20.7389 48.9756 21.0987C48.9756 21.598 49.16 21.9759 49.5289 22.2322C49.8977 22.4841 50.3678 22.6101 50.939 22.6101Z" fill="#171717"/>
</g>
<defs>
<clipPath id="clip0_264_97">
<rect width="76" height="27" fill="white"/>
</clipPath>
</defs>
</svg>
