<svg width="122" height="38" viewBox="0 0 122 38" fill="none" xmlns="http://www.w3.org/2000/svg">
<g clip-path="url(#clip0_70_22869)">
<path d="M116.243 37.0112C118.984 37.0112 121.315 34.6809 121.315 31.9393C121.315 29.1978 118.984 26.8674 116.243 26.8674C113.501 26.8674 111.171 29.1978 111.171 31.9393C111.171 34.6809 113.501 37.0112 116.243 37.0112Z" fill="#3B5FDB"/>
<path d="M0.719672 10.1241V37.1124H6.27608V19.0446H6.35168L17.5779 37.1124H23.5123V10.1241H17.9559V28.2297H17.8803L6.61627 10.1241H0.719672ZM27.9427 23.5804C28.0183 22.3205 28.3333 21.2747 28.8877 20.4431C29.4421 19.6116 30.1476 18.9438 31.0044 18.4398C31.8612 17.9358 32.8187 17.583 33.8771 17.3814C34.9607 17.1546 36.0442 17.0412 37.1278 17.0412C38.1106 17.0412 39.1059 17.1168 40.1139 17.268C41.1219 17.394 42.0416 17.6586 42.8732 18.0618C43.7048 18.465 44.3852 19.032 44.9143 19.7628C45.4435 20.4683 45.7081 21.4133 45.7081 22.5977V32.7655C45.7081 33.6475 45.7585 34.4916 45.8593 35.298C45.9601 36.1044 46.1365 36.7092 46.3885 37.1124H40.9455C40.8447 36.81 40.7565 36.5076 40.6809 36.2052C40.6305 35.8776 40.5927 35.55 40.5675 35.2224C39.7107 36.1044 38.7027 36.7218 37.5436 37.0746C36.3844 37.4273 35.2001 37.6037 33.9905 37.6037C33.0581 37.6037 32.1888 37.4903 31.3824 37.2636C30.576 37.0368 29.8704 36.684 29.2657 36.2052C28.6609 35.7264 28.1821 35.1216 27.8293 34.3909C27.5017 33.6601 27.3379 32.7907 27.3379 31.7827C27.3379 30.674 27.5269 29.7668 27.9049 29.0612C28.3081 28.3305 28.8121 27.7509 29.4169 27.3225C30.0468 26.8941 30.7524 26.5791 31.5336 26.3775C32.34 26.1507 33.1463 25.9743 33.9527 25.8483C34.7591 25.7223 35.5529 25.6216 36.334 25.546C37.1152 25.4704 37.8082 25.357 38.413 25.2058C39.0177 25.0546 39.4965 24.8404 39.8493 24.5632C40.2021 24.2608 40.3659 23.8324 40.3407 23.278C40.3407 22.6985 40.2399 22.2449 40.0383 21.9173C39.8619 21.5645 39.6099 21.2999 39.2823 21.1235C38.9799 20.9219 38.6145 20.7959 38.1862 20.7455C37.783 20.6699 37.342 20.6321 36.8632 20.6321C35.8048 20.6321 34.9733 20.8589 34.3685 21.3125C33.7637 21.7661 33.4109 22.5221 33.3101 23.5804H27.9427ZM40.3407 27.5493C40.1139 27.7509 39.8241 27.9147 39.4713 28.0407C39.1437 28.1415 38.7783 28.2297 38.3752 28.3053C37.9972 28.3809 37.594 28.4439 37.1656 28.4943C36.7372 28.5447 36.3088 28.6076 35.8804 28.6832C35.4773 28.7588 35.0741 28.8596 34.6709 28.9856C34.2929 29.1116 33.9527 29.288 33.6503 29.5148C33.3731 29.7164 33.1463 29.981 32.9699 30.3086C32.7935 30.6362 32.7054 31.052 32.7054 31.5559C32.7054 32.0347 32.7935 32.4379 32.9699 32.7655C33.1463 33.0931 33.3857 33.3577 33.6881 33.5593C33.9905 33.7357 34.3433 33.8617 34.7465 33.9373C35.1497 34.0129 35.5655 34.0507 35.9938 34.0507C37.0522 34.0507 37.8712 33.8743 38.4508 33.5215C39.0303 33.1687 39.4587 32.7529 39.7359 32.2741C40.0131 31.7701 40.1769 31.2662 40.2273 30.7622C40.3029 30.2582 40.3407 29.855 40.3407 29.5526V27.5493ZM48.6647 33.0679V37.1124H66.6191V33.0679H55.733L65.9009 21.6149V17.5704H49.4206V21.6149H58.8325L48.6647 33.0679ZM80.2854 37.1124L86.9001 17.5704H81.5705L77.4504 30.9134H77.3749L73.2548 17.5704H67.6228L74.3132 37.1124H80.2854ZM88.8857 23.5804C88.9613 22.3205 89.2763 21.2747 89.8307 20.4431C90.3851 19.6116 91.0907 18.9438 91.9474 18.4398C92.8042 17.9358 93.7618 17.583 94.8201 17.3814C95.9037 17.1546 96.9873 17.0412 98.0708 17.0412C99.0536 17.0412 100.049 17.1168 101.057 17.268C102.065 17.394 102.985 17.6586 103.816 18.0618C104.648 18.465 105.328 19.032 105.857 19.7628C106.387 20.4683 106.651 21.4133 106.651 22.5977V32.7655C106.651 33.6475 106.702 34.4916 106.802 35.298C106.903 36.1044 107.08 36.7092 107.332 37.1124H101.889C101.788 36.81 101.7 36.5076 101.624 36.2052C101.574 35.8776 101.536 35.55 101.511 35.2224C100.654 36.1044 99.6458 36.7218 98.4866 37.0746C97.3275 37.4273 96.1431 37.6037 94.9335 37.6037C94.0012 37.6037 93.1318 37.4903 92.3254 37.2636C91.5191 37.0368 90.8135 36.684 90.2087 36.2052C89.6039 35.7264 89.1251 35.1216 88.7724 34.3909C88.4448 33.6601 88.281 32.7907 88.281 31.7827C88.281 30.674 88.47 29.7668 88.848 29.0612C89.2511 28.3305 89.7551 27.7509 90.3599 27.3225C90.9899 26.8941 91.6955 26.5791 92.4766 26.3775C93.283 26.1507 94.0894 25.9743 94.8957 25.8483C95.7021 25.7223 96.4959 25.6216 97.2771 25.546C98.0582 25.4704 98.7512 25.357 99.356 25.2058C99.9608 25.0546 100.44 24.8404 100.792 24.5632C101.145 24.2608 101.309 23.8324 101.284 23.278C101.284 22.6985 101.183 22.2449 100.981 21.9173C100.805 21.5645 100.553 21.2999 100.225 21.1235C99.923 20.9219 99.5576 20.7959 99.1292 20.7455C98.726 20.6699 98.285 20.6321 97.8062 20.6321C96.7479 20.6321 95.9163 20.8589 95.3115 21.3125C94.7068 21.7661 94.354 22.5221 94.2532 23.5804H88.8857ZM101.284 27.5493C101.057 27.7509 100.767 27.9147 100.414 28.0407C100.087 28.1415 99.7214 28.2297 99.3182 28.3053C98.9402 28.3809 98.537 28.4439 98.1086 28.4943C97.6802 28.5447 97.2519 28.6076 96.8235 28.6832C96.4203 28.7588 96.0171 28.8596 95.6139 28.9856C95.2359 29.1116 94.8957 29.288 94.5934 29.5148C94.3162 29.7164 94.0894 29.981 93.913 30.3086C93.7366 30.6362 93.6484 31.052 93.6484 31.5559C93.6484 32.0347 93.7366 32.4379 93.913 32.7655C94.0894 33.0931 94.3288 33.3577 94.6312 33.5593C94.9335 33.7357 95.2863 33.8617 95.6895 33.9373C96.0927 34.0129 96.5085 34.0507 96.9369 34.0507C97.9952 34.0507 98.8142 33.8743 99.3938 33.5215C99.9734 33.1687 100.402 32.7529 100.679 32.2741C100.956 31.7701 101.12 31.2662 101.17 30.7622C101.246 30.2582 101.284 29.855 101.284 29.5526V27.5493Z" fill="#171717"/>
</g>
<defs>
<clipPath id="clip0_70_22869">
<rect width="122" height="37.0112" fill="white"/>
</clipPath>
</defs>
</svg>
