<svg width="52" height="21" viewBox="0 0 52 21" fill="none" xmlns="http://www.w3.org/2000/svg">
<path fill-rule="evenodd" clip-rule="evenodd" d="M24.2363 0.524805C24.2244 0.53539 23.911 0.55922 23.5399 0.577836C22.58 0.625966 20.0964 0.759301 19.5435 0.792361C19.0478 0.822032 18.5754 0.85092 17.8566 0.895556C17.614 0.910626 16.7381 0.957817 15.9103 1.00042C15.0825 1.04307 14.23 1.09016 14.0159 1.10513C13.8018 1.12004 12.996 1.16708 12.2252 1.20963C11.4545 1.25218 10.6137 1.29937 10.3568 1.31449C10.0998 1.32961 9.69112 1.35355 9.44848 1.36773C8.92266 1.39844 5.49 1.58872 4.75133 1.62814C4.46586 1.64332 4.06881 1.66626 3.86899 1.67909C3.66917 1.69197 2.79332 1.73984 1.92266 1.78557C1.052 1.8313 0.28758 1.87917 0.223896 1.89184L0.108154 1.91499L0.205004 2.16195C0.258255 2.29779 0.408201 2.70223 0.538216 3.06072C0.668231 3.41922 0.925147 4.12318 1.10914 4.62508C1.29313 5.12697 2.16141 7.49697 3.03866 9.89173C3.91596 12.2865 4.66019 14.3162 4.69252 14.4023C4.73752 14.5221 4.7574 13.6359 4.77728 10.6218L4.80323 6.68481L6.74956 6.66917C7.95245 6.65947 8.9239 6.67636 9.29277 6.71333C11.0714 6.89151 12.1459 7.5122 12.5175 8.57595C12.6668 9.00339 12.6658 9.80147 12.5155 10.2307C12.2869 10.8835 11.8028 11.3933 11.0821 11.7401C10.319 12.1075 9.45756 12.2574 7.93132 12.2886C7.84921 12.2902 7.84023 12.3928 7.82752 13.4767L7.81356 14.663H6.32137C5.20858 14.663 4.82913 14.6787 4.82918 14.7246C4.82918 14.7585 4.93236 15.0635 5.05848 15.4025C5.35277 16.1935 6.70679 19.8959 6.83359 20.2564C6.902 20.4507 6.95182 20.5226 7.0043 20.5023C7.07706 20.4743 11.2774 19.1468 13.5228 18.4422C17.2234 17.281 19.9469 16.413 19.9733 16.3865C19.99 16.3697 19.9585 16.2993 19.9033 16.2299C19.3718 15.5617 19.1467 15.2269 19.0979 15.032L19.0417 14.8081L18.2546 14.7779C17.0307 14.7311 16.2116 14.5465 15.3805 14.1302C14.0735 13.4754 13.349 12.392 13.254 10.95C13.1182 8.88987 14.422 7.31988 16.7667 6.71995C17.2848 6.5874 17.3745 6.58052 18.5833 6.58099C19.7412 6.58146 19.893 6.59199 20.2816 6.69904C20.5164 6.76376 20.7674 6.83921 20.8396 6.86674L20.9708 6.91685V7.98823V9.05955L20.7761 8.96105C20.2113 8.67529 19.4288 8.48606 18.8064 8.4847C17.4615 8.48183 16.6167 9.13406 16.4555 10.2998C16.3507 11.0572 16.5585 11.7124 17.0524 12.1817C17.7904 12.8829 18.9436 13.0367 20.418 12.6305C20.7849 12.5295 21.1029 12.4468 21.1249 12.4468C21.1469 12.4468 21.1647 12.4879 21.1645 12.5381C21.1638 12.7273 21.1827 12.7592 21.3456 12.8439C21.4376 12.8917 21.7003 13.0968 21.9295 13.2997L22.3462 13.6686L22.3721 10.1767L22.3981 6.68481H23.9292H25.4603L25.4738 9.13036L25.4873 11.576L25.8575 11.0337C26.2815 10.4126 27.2047 9.18376 27.7296 8.54201C27.9262 8.30157 28.076 8.07865 28.0624 8.04663C28.0488 8.01461 27.7951 7.44873 27.4987 6.7891C27.2023 6.12946 26.4477 4.44585 25.8218 3.04769L24.6838 0.505615H24.4708C24.3538 0.505615 24.2482 0.514271 24.2363 0.524805ZM24.8115 2.59903C25.1803 2.77236 25.4668 3.05869 25.6351 3.42225C25.747 3.66394 25.7693 3.78674 25.7682 4.15577C25.7666 4.71456 25.6345 5.04167 25.2735 5.38092C24.8672 5.76278 24.6325 5.84428 23.9292 5.84762C23.3739 5.85028 23.3124 5.84027 23.0469 5.70365C22.391 5.36632 22.0961 4.8881 22.0923 4.15577C22.0889 3.52414 22.2781 3.12585 22.7452 2.78071C23.11 2.51117 23.4169 2.43045 24.007 2.4488C24.4343 2.46205 24.5765 2.48864 24.8115 2.59903ZM42.3026 3.69387C41.93 3.75571 41.4354 3.99084 41.1688 4.23284C40.6629 4.69203 40.5127 5.48135 40.8139 6.0976C41.0786 6.63908 41.6607 6.98313 42.8205 7.28354C43.1767 7.37584 43.5566 7.48685 43.6646 7.53024C44.1796 7.73725 44.2195 8.37723 43.732 8.60969C43.5197 8.71091 43.0334 8.71732 42.8061 8.62195C42.5711 8.52324 42.333 8.23195 42.2531 7.94495L42.1853 7.70164L41.9195 7.70466C41.4709 7.70972 40.4841 7.79049 40.4498 7.82491C40.3964 7.87862 40.5401 8.4384 40.6834 8.73463C41.0917 9.57876 41.9329 9.93402 43.3879 9.87682C43.8887 9.85716 44.1878 9.81868 44.4195 9.74427C45.3358 9.4498 45.8838 8.73693 45.8838 7.83935C45.8838 7.3737 45.78 7.05128 45.539 6.7684C45.1481 6.30952 44.6758 6.08942 43.4444 5.79219C42.6369 5.59722 42.4813 5.52714 42.4043 5.32335C42.2896 5.02029 42.6103 4.75888 43.0837 4.76973C43.4968 4.77917 43.8277 5.02514 43.8972 5.3744L43.9276 5.52682L44.5813 5.49335C44.9409 5.47489 45.3374 5.45971 45.4624 5.45961L45.6897 5.4594L45.6642 5.23225C45.6502 5.10726 45.5802 4.87647 45.5085 4.7193C45.2636 4.18195 44.8205 3.8683 44.0846 3.71165C43.6938 3.62848 42.7533 3.61909 42.3026 3.69387ZM48.3263 3.71546C47.3944 3.91846 46.8215 4.50535 46.7754 5.30411C46.7512 5.72351 46.8227 6.0039 47.0254 6.28512C47.3565 6.74425 47.8884 7.02047 48.9622 7.29063C49.8913 7.5244 50.1917 7.72046 50.1917 8.09273C50.1917 8.44815 49.8537 8.6924 49.3618 8.6924C48.8188 8.6924 48.4189 8.37848 48.3404 7.89092L48.308 7.68912L47.6279 7.72359C47.2538 7.74252 46.8521 7.77094 46.7352 7.78674L46.5225 7.81537L46.5696 8.08444C46.6271 8.413 46.855 8.91938 47.0493 9.15028C47.4566 9.63408 48.028 9.83875 49.0758 9.87609C49.9188 9.90612 50.3921 9.82926 50.8959 9.58069C52.194 8.94008 52.3925 7.16538 51.2509 6.40568C50.9208 6.18599 50.5693 6.0586 49.6304 5.81837C48.7182 5.58496 48.5453 5.50951 48.4991 5.32424C48.4229 5.0194 48.6918 4.76947 49.0959 4.76947C49.5902 4.76947 49.8607 4.93638 49.9817 5.316C50.0538 5.54221 50.0043 5.53532 51.1442 5.47692L51.8113 5.44276L51.7775 5.23022C51.6867 4.66007 51.2772 4.10681 50.7835 3.88743C50.2273 3.64021 49.0498 3.55782 48.3263 3.71546ZM34.2058 6.76303V9.78744H35.7833C37.5539 9.78744 37.9525 9.7391 38.477 9.4608C39.036 9.16415 39.4893 8.55108 39.6619 7.85807C39.7706 7.42224 39.7572 6.09755 39.6399 5.66798C39.4955 5.13912 39.3212 4.80602 39.0233 4.48955C38.6749 4.11943 38.4253 3.97352 37.917 3.84295C37.5526 3.7493 37.3414 3.73861 35.8584 3.73861H34.2058V6.76303ZM37.1715 5.19085C37.4248 5.28888 37.6726 5.55733 37.7707 5.8399C37.8438 6.05015 37.8649 6.26958 37.8649 6.81517C37.8649 7.57748 37.8157 7.80603 37.5948 8.06983C37.3825 8.32336 37.1972 8.38907 36.6101 8.41915L36.0743 8.44664V6.76287V5.07905L36.5544 5.10846C36.8184 5.12458 37.0962 5.16165 37.1715 5.19085ZM31.8808 5.96072C31.0412 6.08274 30.6103 6.27818 30.2408 6.70452C30.101 6.86575 29.8902 7.10327 29.7722 7.23233C29.6542 7.36139 29.3019 7.77203 28.9894 8.14487C28.6768 8.51771 28.4079 8.83449 28.3919 8.84883C28.242 8.98263 26.7571 10.9801 26.2016 11.795C25.4635 12.878 24.0391 15.2054 23.9587 15.4599C23.9382 15.525 23.8647 15.6156 23.7955 15.6612C23.6323 15.7686 23.706 15.8223 22.2175 14.5111C21.5473 13.9207 20.9597 13.4376 20.9116 13.4376C20.7949 13.4376 20.379 13.7728 20.077 14.1103C19.8284 14.3881 19.7371 14.6316 19.7964 14.8582C19.8134 14.923 20.3874 15.6798 21.072 16.5402C22.3945 18.2024 22.5702 18.3752 23.0959 18.53C23.5088 18.6517 24.186 18.6044 24.5715 18.4272C24.9029 18.2747 24.8459 18.3549 25.6903 16.8531C26.7788 14.9173 27.599 13.5167 28.2298 12.5164C28.3052 12.3969 28.4719 12.1284 28.6004 11.9197C29.0556 11.1799 30.2552 9.38504 30.6021 8.9247C31.2938 8.00674 31.8131 7.44378 32.9252 6.40635C33.326 6.03237 33.2374 5.86436 32.6518 5.88777C32.4476 5.89596 32.1007 5.92876 31.8808 5.96072ZM7.82653 8.4093C7.80515 8.43115 7.78761 8.91709 7.78761 9.48917V10.5293L8.321 10.5094C8.78652 10.4921 8.8939 10.4698 9.16442 10.3341C9.54642 10.1424 9.70799 9.87411 9.70799 9.4315C9.70799 8.96313 9.49535 8.67367 9.03004 8.50874C8.79508 8.42546 7.8844 8.35022 7.82653 8.4093ZM34.6749 10.8424C34.2529 10.957 34.0501 11.2713 34.0501 11.8111C34.0501 12.1938 34.2123 12.5334 34.4653 12.6803C34.7143 12.8248 35.3035 12.828 35.5374 12.686C35.6944 12.5907 35.9572 12.2075 35.903 12.1531C35.8887 12.1387 35.7685 12.0941 35.6359 12.054C35.4161 11.9875 35.3922 11.989 35.3634 12.0706C35.2668 12.3447 34.9318 12.4392 34.7544 12.2423C34.651 12.1275 34.5923 11.7867 34.6419 11.5883C34.7253 11.2545 35.0954 11.1337 35.2865 11.3779C35.3426 11.4496 35.4086 11.5081 35.433 11.5079C35.5607 11.5071 35.8667 11.3917 35.8667 11.3443C35.8667 11.2432 35.6522 10.9858 35.5034 10.9086C35.3166 10.8115 34.9086 10.779 34.6749 10.8424ZM36.7404 10.8634C36.3478 10.9798 36.1255 11.3367 36.1277 11.8472C36.1286 12.0874 36.2703 12.4293 36.4269 12.5691C36.8006 12.903 37.5372 12.8777 37.8736 12.5194C38.1779 12.1952 38.2113 11.522 37.9419 11.1419C37.7366 10.8523 37.1983 10.7275 36.7404 10.8634ZM38.4618 11.795V12.7597H38.6954H38.9289L38.9305 12.0949C38.9314 11.7125 38.9504 11.4632 38.9752 11.5082C38.999 11.5512 39.0827 11.8505 39.1613 12.1731L39.3041 12.7597H39.5298C39.7516 12.7597 39.7563 12.7561 39.8125 12.5381C39.8439 12.4162 39.9244 12.117 39.9915 11.8732L40.1134 11.43L40.1181 12.0949L40.1227 12.7597H40.3562H40.5898V11.795V10.8303H40.2102H39.8306L39.7096 11.3388C39.5732 11.9116 39.5285 11.998 39.4779 11.7858C39.4585 11.7048 39.3947 11.4567 39.3358 11.2345L39.229 10.8303H38.8454H38.4618V11.795ZM41.005 11.795V12.7597H41.2881H41.5712L41.5865 12.4077L41.6019 12.0558L41.9393 12.0287C42.4691 11.9862 42.6227 11.8517 42.6227 11.43C42.6227 10.9456 42.4217 10.8303 41.5776 10.8303H41.005V11.795ZM42.9773 11.795V12.7597H43.7299H44.4825V12.5251V12.2904H44.0154H43.5482V11.5604V10.8303H43.2628H42.9773V11.795ZM44.7939 11.795V12.7597H45.0793H45.3648V11.795V10.8303H45.0793H44.7939V11.795ZM46.2935 10.9712C46.2622 11.0515 46.1127 11.4457 45.9611 11.8472C45.8095 12.2487 45.6693 12.6182 45.6493 12.6685C45.6174 12.7493 45.6489 12.7597 45.9261 12.7597C46.2315 12.7597 46.2397 12.756 46.2731 12.6033C46.3068 12.4491 46.3122 12.4468 46.6432 12.4468C46.9698 12.4468 46.9807 12.4512 47.0335 12.6033C47.0856 12.7537 47.0997 12.7597 47.3996 12.7597C47.6757 12.7597 47.7074 12.7492 47.6758 12.6685C47.6562 12.6182 47.6071 12.4833 47.5669 12.3686C47.5265 12.2539 47.382 11.8667 47.2457 11.5082L46.9979 10.8564L46.674 10.8409C46.3617 10.8259 46.3483 10.8305 46.2935 10.9712ZM47.908 11.795V12.7597H48.1916H48.4752L48.49 12.2559L48.5049 11.7521L48.8423 12.254L49.1796 12.7559L49.4781 12.7578L49.7765 12.7597V11.795V10.8303H49.491H49.2056V11.3257C49.2056 11.5982 49.1881 11.8205 49.1666 11.8198C49.1452 11.8192 48.9816 11.5963 48.8031 11.3245L48.4784 10.8303H48.1932H47.908V11.795ZM50.036 11.0624V11.2944L50.3344 11.3101L50.6329 11.3257L50.6473 12.0427L50.6617 12.7597H50.9458H51.2298V12.0297V11.2996H51.5412H51.8526V11.065V10.8303H50.9443H50.036V11.0624ZM37.4002 11.3755C37.5714 11.5475 37.5821 11.9981 37.42 12.2051C37.3002 12.3581 37.0439 12.3921 36.8859 12.276C36.6693 12.1169 36.6738 11.5231 36.8929 11.35C37.0675 11.2119 37.2464 11.221 37.4002 11.3755ZM42.0171 11.4288C42.0171 11.5494 41.9867 11.5947 41.8805 11.6322C41.6699 11.7066 41.5759 11.6438 41.5759 11.4287V11.2415L41.7965 11.2576C42.0031 11.2725 42.0171 11.2835 42.0171 11.4288ZM46.7519 11.6256C46.7844 11.7475 46.8268 11.8882 46.846 11.9384C46.876 12.0165 46.8494 12.0297 46.6624 12.0297C46.4816 12.0297 46.4493 12.0149 46.4761 11.9447C46.4939 11.898 46.5342 11.7572 46.5657 11.6319C46.5971 11.5065 46.6385 11.4039 46.6577 11.4039C46.677 11.4039 46.7194 11.5036 46.7519 11.6256ZM29.4558 11.9036C28.8932 12.7849 28.3379 13.7128 28.3599 13.7348C28.3803 13.7553 30.2423 13.1889 30.3071 13.1425C30.3268 13.1284 30.099 12.5786 29.8046 11.9297L29.6528 11.595L29.4558 11.9036Z" fill="white"/>
</svg>
