<svg width="40" height="36" viewBox="0 0 40 36" fill="none" xmlns="http://www.w3.org/2000/svg">
<path fill-rule="evenodd" clip-rule="evenodd" d="M35.3333 0.75H4.66659C2.55825 0.75 0.833252 2.475 0.833252 4.58333V31.4167C0.833252 33.525 2.55825 35.25 4.66659 35.25H35.3333C37.4416 35.25 39.1666 33.525 39.1666 31.4167V4.58333C39.1666 2.475 37.4416 0.75 35.3333 0.75ZM14.2499 27.5833H8.49992C7.44575 27.5833 6.58325 26.7208 6.58325 25.6667C6.58325 24.6125 7.44575 23.75 8.49992 23.75H14.2499C15.3041 23.75 16.1666 24.6125 16.1666 25.6667C16.1666 26.7208 15.3041 27.5833 14.2499 27.5833ZM14.2499 19.9167H8.49992C7.44575 19.9167 6.58325 19.0542 6.58325 18C6.58325 16.9458 7.44575 16.0833 8.49992 16.0833H14.2499C15.3041 16.0833 16.1666 16.9458 16.1666 18C16.1666 19.0542 15.3041 19.9167 14.2499 19.9167ZM14.2499 12.25H8.49992C7.44575 12.25 6.58325 11.3875 6.58325 10.3333C6.58325 9.27917 7.44575 8.41667 8.49992 8.41667H14.2499C15.3041 8.41667 16.1666 9.27917 16.1666 10.3333C16.1666 11.3875 15.3041 12.25 14.2499 12.25ZM32.8416 16.3133L26.7658 22.3892C26.0183 23.1367 24.7916 23.1367 24.0441 22.3892L21.3416 19.6675C20.5941 18.92 20.5941 17.7125 21.3416 16.965C22.0891 16.2175 23.2966 16.2175 24.0441 16.965L25.4049 18.3258L30.1391 13.5917C30.8866 12.8442 32.0941 12.8442 32.8416 13.5917L32.8608 13.6108C33.5891 14.3583 33.5891 15.585 32.8416 16.3133Z" fill="#3B5FDB"/>
</svg>
