<svg width="48" height="46" viewBox="0 0 48 46" fill="none" xmlns="http://www.w3.org/2000/svg">
<path d="M35.5501 18.87L22.3434 32.0767C21.4334 32.9867 19.9634 32.9867 19.0534 32.0767L12.4501 25.4733C11.5401 24.5633 11.5401 23.0933 12.4501 22.1833C13.3601 21.2733 14.8301 21.2733 15.7401 22.1833L20.6867 27.13L32.2367 15.58C33.1467 14.67 34.6167 14.67 35.5267 15.58C36.4601 16.49 36.4601 17.96 35.5501 18.87ZM5.33341 23C5.33341 17.5633 7.71341 12.6867 11.4467 9.27998L15.0167 12.85C15.7401 13.5733 17.0001 13.06 17.0001 12.01V1.99998C17.0001 1.34665 16.4867 0.833318 15.8334 0.833318H5.82341C4.77341 0.833318 4.26008 2.09332 5.00675 2.81665L8.13341 5.96665C3.56008 10.2133 0.666748 16.2567 0.666748 23C0.666748 34.0833 8.41341 43.37 18.7734 45.75C20.2434 46.0767 21.6667 44.98 21.6667 43.4633C21.6667 42.3667 20.8967 41.4333 19.8234 41.1767C11.5401 39.2867 5.33341 31.8667 5.33341 23ZM47.3334 23C47.3334 11.9167 39.5867 2.62998 29.2267 0.249985C27.7567 -0.0766821 26.3334 1.01998 26.3334 2.53665C26.3334 3.63332 27.1034 4.56665 28.1767 4.82332C36.4601 6.71332 42.6667 14.1333 42.6667 23C42.6667 28.4367 40.2867 33.3133 36.5534 36.72L32.9834 33.15C32.2601 32.4267 31.0001 32.94 31.0001 33.99V44C31.0001 44.6533 31.5134 45.1667 32.1667 45.1667H42.1767C43.2267 45.1667 43.7401 43.9067 42.9934 43.1833L39.8667 40.0333C44.4401 35.7867 47.3334 29.7433 47.3334 23Z" fill="#3B5FDB"/>
</svg>
