<svg width="18" height="21" viewBox="0 0 18 21" fill="none" xmlns="http://www.w3.org/2000/svg">
<path fill-rule="evenodd" clip-rule="evenodd" d="M8.77752 0.523227C8.74076 0.538817 8.41987 0.726752 8.06445 0.94082C5.9095 2.23867 3.54896 3.06667 1.50056 3.24312C1.11229 3.27658 0.935407 3.3666 0.767657 3.61613C0.679637 3.74707 0.666356 3.82319 0.666757 4.1958C0.668539 5.951 1.08177 8.97967 1.57891 10.8816C2.77897 15.4729 4.8841 18.5761 7.78604 20.0318C8.34358 20.3114 8.84121 20.5056 9.00036 20.5056C9.28038 20.5056 10.3901 19.9861 11.0727 19.5355C12.0644 18.8808 12.9229 18.0491 13.6976 16.9924C15.2858 14.8261 16.4292 11.7299 16.9761 8.11411C17.1962 6.65883 17.3911 4.21523 17.3177 3.83087C17.2777 3.62199 17.0648 3.37196 16.8754 3.31156C16.7969 3.28654 16.5222 3.24411 16.2648 3.21726C15.2058 3.10678 13.814 2.75048 12.6549 2.29304C11.8966 1.99383 10.626 1.36002 9.8917 0.914776C9.37655 0.602386 9.20479 0.520055 9.04493 0.508887C8.93462 0.501159 8.81429 0.507592 8.77752 0.523227ZM9.11401 2.98921C9.13727 3.01101 9.41706 3.17017 9.73572 3.34288C11.1376 4.10279 12.8051 4.73258 14.3707 5.09344C14.7139 5.17255 15.0207 5.24496 15.0526 5.25434C15.117 5.27328 15.1156 5.29549 14.967 6.63497C14.5258 10.6106 13.3831 13.9014 11.7173 15.9937C11.3391 16.4687 10.6422 17.1523 10.2037 17.4782C9.81857 17.7644 9.10416 18.1827 9.00036 18.1827C8.89656 18.1827 8.18215 17.7644 7.79705 17.4782C7.35851 17.1523 6.66161 16.4687 6.28342 15.9937C4.74313 14.0591 3.66336 11.1416 3.14206 7.50608C3.0158 6.62564 2.88424 5.32551 2.91619 5.27369C2.92778 5.25492 3.02293 5.22598 3.12766 5.2094C3.86356 5.0929 5.67574 4.53405 6.61602 4.13361C7.24767 3.8646 8.17351 3.40819 8.59926 3.15597C8.94323 2.95222 9.04078 2.92059 9.11401 2.98921ZM5.79153 6.62635C5.57279 6.69546 5.19972 7.08268 5.13265 7.31024C5.0092 7.72908 5.09624 8.063 5.41119 8.3787C5.67414 8.64226 5.86529 8.71222 6.32237 8.71222C6.60269 8.71222 6.65591 8.7258 6.75173 8.82189C6.82072 8.891 6.86114 8.98257 6.86114 9.0696C6.86114 9.15662 6.82072 9.24819 6.75173 9.3173C6.64526 9.42407 6.62444 9.42697 5.9698 9.42697C5.31515 9.42697 5.29434 9.42988 5.18787 9.53664C5.11888 9.60575 5.07845 9.69733 5.07845 9.78435C5.07845 9.87137 5.11888 9.96294 5.18787 10.0321C5.29438 10.1389 5.31488 10.1417 5.97376 10.1417C6.80485 10.1417 6.94568 10.1047 7.24148 9.8082C7.69236 9.35626 7.69236 8.78294 7.24148 8.33099C6.97853 8.06743 6.78738 7.99747 6.3303 7.99747C6.04997 7.99747 5.99676 7.98389 5.90094 7.8878C5.75619 7.74275 5.75619 7.53744 5.90094 7.39239C6.00741 7.28562 6.02822 7.28272 6.68287 7.28272C7.33752 7.28272 7.35833 7.27981 7.4648 7.17305C7.53379 7.10394 7.57421 7.01236 7.57421 6.92534C7.57421 6.83832 7.53379 6.74674 7.4648 6.67764C7.35748 6.57002 7.34229 6.56806 6.65145 6.57252C6.2643 6.57503 5.87732 6.59928 5.79153 6.62635ZM8.64382 6.62635C8.42509 6.69546 8.05202 7.08268 7.98494 7.31024C7.86149 7.72908 7.94853 8.063 8.26349 8.3787C8.52643 8.64226 8.71758 8.71222 9.17466 8.71222C9.45499 8.71222 9.5082 8.7258 9.60402 8.82189C9.67301 8.891 9.71343 8.98257 9.71343 9.0696C9.71343 9.15662 9.67301 9.24819 9.60402 9.3173C9.49755 9.42407 9.47674 9.42697 8.82209 9.42697C8.16745 9.42697 8.14663 9.42988 8.04016 9.53664C7.97117 9.60575 7.93075 9.69733 7.93075 9.78435C7.93075 9.87137 7.97117 9.96294 8.04016 10.0321C8.14668 10.1389 8.16718 10.1417 8.82606 10.1417C9.2269 10.1417 9.57728 10.1196 9.68598 10.0874C9.93079 10.0149 10.3 9.64484 10.3723 9.39945C10.4958 8.98061 10.4087 8.64669 10.0938 8.33099C9.83082 8.06743 9.63968 7.99747 9.1826 7.99747C8.90227 7.99747 8.84906 7.98389 8.75324 7.8878C8.60848 7.74275 8.60848 7.53744 8.75324 7.39239C8.85971 7.28562 8.88052 7.28272 9.53517 7.28272C10.1898 7.28272 10.2106 7.27981 10.3171 7.17305C10.3861 7.10394 10.4265 7.01236 10.4265 6.92534C10.4265 6.83832 10.3861 6.74674 10.3171 6.67764C10.2098 6.57002 10.1946 6.56806 9.50375 6.57252C9.11659 6.57503 8.72962 6.59928 8.64382 6.62635ZM10.8901 6.68L10.7783 6.79204L10.7918 8.1687L10.8053 9.5454L10.9249 9.72636C10.9906 9.82594 11.121 9.95508 11.2146 10.0134C11.3697 10.1101 11.4424 10.1207 12.0401 10.1346C12.6919 10.1498 12.696 10.1492 12.8088 10.0361C12.9577 9.88696 12.9593 9.68339 12.8129 9.53664C12.7085 9.43206 12.678 9.42697 12.1533 9.42697C11.7848 9.42697 11.5854 9.40928 11.5496 9.37337C11.5105 9.33419 11.4961 8.97882 11.4961 8.05353V6.78726L11.3867 6.67764C11.241 6.53156 11.0372 6.53254 10.8901 6.68ZM8.66611 11.6308C8.07537 11.8258 7.74691 12.2099 7.59962 12.8779C7.58451 12.9464 7.54244 13.0007 7.50447 13.0007C7.46707 13.0007 7.38725 13.0501 7.32709 13.1104C7.21857 13.2191 7.21768 13.2269 7.21768 14.0729C7.21768 14.9188 7.21857 14.9266 7.32709 15.0353L7.43646 15.145H9.00036H10.5643L10.6736 15.0353C10.7822 14.9266 10.783 14.9188 10.783 14.0729C10.783 13.2269 10.7822 13.2191 10.6736 13.1104C10.6135 13.0501 10.5336 13.0007 10.4963 13.0007C10.4582 13.0007 10.4163 12.9465 10.4014 12.8779C10.2747 12.2983 10.008 11.937 9.54644 11.7196C9.26447 11.5868 8.90824 11.5509 8.66611 11.6308ZM9.28586 12.3872C9.48761 12.5029 9.6075 12.6506 9.66588 12.8555L9.70719 13.0007H9.00036H8.29353L8.33007 12.8729C8.40423 12.6138 8.51106 12.4841 8.75533 12.3563C8.93774 12.261 9.08014 12.2693 9.28586 12.3872Z" fill="white"/>
</svg>
