<svg width="48" height="48" viewBox="0 0 48 48" fill="none" xmlns="http://www.w3.org/2000/svg">
<path d="M24.0001 0.666748C11.1667 0.666748 0.666748 11.1667 0.666748 24.0001C0.666748 36.8334 11.1667 47.3334 24.0001 47.3334C36.8334 47.3334 47.3334 36.8334 47.3334 24.0001C47.3334 11.1667 36.8334 0.666748 24.0001 0.666748ZM24.0001 42.6667C13.7101 42.6667 5.33341 34.2901 5.33341 24.0001C5.33341 13.7101 13.7101 5.33341 24.0001 5.33341C34.2901 5.33341 42.6667 13.7101 42.6667 24.0001C42.6667 34.2901 34.2901 42.6667 24.0001 42.6667ZM25.1667 12.3334H21.6667V26.3334L33.8001 33.8001L35.6667 30.7667L25.1667 24.4667V12.3334Z" fill="#3B5FDB"/>
</svg>
