<svg width="79" height="21" viewBox="0 0 79 21" fill="none" xmlns="http://www.w3.org/2000/svg">
<path fill-rule="evenodd" clip-rule="evenodd" d="M65.3831 0.707635C61.6783 1.68824 59.1475 4.03754 57.894 7.65914C57.6717 8.30127 57.6096 8.92248 57.6096 10.4984C57.6096 12.0744 57.6717 12.6956 57.894 13.3377C59.028 16.614 61.2107 18.8494 64.3923 19.9926C65.8925 20.5315 68.4804 20.6685 70.1081 20.2951C71.2464 20.0339 73.0409 19.2323 73.724 18.6797L74.1391 18.3439L73.1253 17.1978L72.1114 16.0518L70.9669 17.0858C70.3374 17.6544 69.7763 18.1197 69.7202 18.1197C69.6306 18.1197 66.4807 14.7309 65.9412 14.0543C65.7637 13.8315 65.8066 13.7403 66.2817 13.3313L66.8256 12.8631L65.4565 11.3677C64.7036 10.5452 64.0875 9.81342 64.0875 9.74154C64.0875 9.66966 64.2955 9.46 64.5496 9.27574C64.8039 9.09149 64.9926 8.85792 64.9688 8.7566C64.9452 8.65543 64.3628 7.97191 63.6746 7.23772C62.9864 6.50339 62.4034 5.83989 62.379 5.76308C62.3546 5.68627 63.1234 4.92743 64.0875 4.07669C65.0516 3.22594 66.0298 2.35921 66.2615 2.1506L66.6826 1.77148L67.4354 2.49849L68.1882 3.2255L69.3486 2.20723L70.509 1.18912L71.2338 1.88893L71.9585 2.5889L72.367 2.27388C72.5917 2.10054 72.7755 1.89282 72.7755 1.81197C72.7755 1.605 71.2396 0.963621 70.1286 0.706739C68.967 0.438201 66.3991 0.438649 65.3831 0.707635ZM73.2506 3.23267C72.6984 3.79126 72.722 3.99689 73.4093 4.62079L73.7663 4.94477L74.3721 4.44311L74.9779 3.9416L74.5156 3.38151C74.2613 3.07352 73.9859 2.79945 73.9036 2.77255C73.8213 2.74566 73.5274 2.95277 73.2506 3.23267ZM69.5035 3.82982L68.594 4.62916L69.4451 5.49753L70.2962 6.36576L71.1548 5.63905C71.627 5.23931 72.0134 4.85197 72.0134 4.77814C72.0134 4.70447 71.6532 4.28097 71.2132 3.83729L70.413 3.03048L69.5035 3.82982ZM65.4517 4.61929C64.827 5.16892 64.3003 5.69106 64.2809 5.77967C64.2616 5.86814 64.7165 6.44347 65.2919 7.0581L66.338 8.17544L67.4991 7.15673C68.1376 6.59634 68.6601 6.07615 68.6601 6.00054C68.6601 5.88741 68.0742 5.21017 66.7639 3.80905C66.6245 3.65991 66.3471 3.83131 65.4517 4.61929ZM16.6462 5.91222L16.0746 6.04507V10.0687V14.0924L16.4938 14.2496C19.4015 15.3408 21.3355 13.9537 21.0523 10.9804C20.914 9.53024 20.4879 8.99361 19.1939 8.64064C19.0234 8.59401 18.5282 8.64647 18.0936 8.7569L17.3036 8.95789L17.2606 7.36863L17.2178 5.77937L16.6462 5.91222ZM0.125677 6.57572C0.167288 6.71963 0.599557 8.56891 1.08609 10.6852L1.97074 14.5332H2.59659H3.22243L3.95512 11.806C4.35812 10.3061 4.73415 9.02678 4.79085 8.96327C4.8474 8.89976 5.15621 9.80759 5.4769 10.9807C5.7976 12.1537 6.1564 13.4367 6.27437 13.8316L6.48883 14.5497L7.11513 14.5041L7.74143 14.4585L8.62212 10.7226C9.10652 8.66784 9.50678 6.83156 9.51166 6.64192C9.51974 6.32795 9.46288 6.3012 8.87987 6.34305L8.23939 6.38893L7.6858 9.22852C7.38141 10.7903 7.10004 12.1632 7.06056 12.2791C7.02109 12.3952 6.61793 11.0974 6.16447 9.39515L5.34003 6.30001L4.81143 6.34439L4.28268 6.38893L3.52407 9.45238C2.88283 12.0418 2.74596 12.4465 2.63972 12.0675C2.57067 11.821 2.26095 10.4255 1.95139 8.96671L1.38864 6.31421H0.719208C0.154333 6.31421 0.0616602 6.355 0.125677 6.57572ZM22.3927 6.50339C22.352 6.60755 22.337 8.43994 22.3594 10.5755L22.4001 14.4585L22.8955 14.5053L23.3909 14.5522V11.6038C23.3909 9.98213 23.4421 8.70564 23.5047 8.76706C23.5674 8.82848 24.1387 10.1341 24.7743 11.6685C25.8106 14.1705 25.9691 14.4631 26.3105 14.5033C26.6722 14.5458 26.7513 14.3984 27.8989 11.5431L29.1067 8.53827L29.148 11.5357L29.1892 14.5332H29.7958H30.4023V10.4155V6.29777L29.6944 6.34335L28.9866 6.38893L27.7549 9.56072C27.0775 11.3052 26.4809 12.6838 26.4293 12.6242C26.3776 12.5646 25.7658 11.1205 25.0695 9.41502L23.8038 6.31421H23.1353C22.7365 6.31421 22.4369 6.39057 22.3927 6.50339ZM74.8104 6.81153L74.2235 7.34024L74.7488 7.87328C75.0378 8.16648 75.3121 8.40528 75.3585 8.40408C75.405 8.40288 75.7042 8.18426 76.0236 7.91841L76.6042 7.43498L76.0008 6.8589L75.3972 6.28282L74.8104 6.81153ZM71.187 7.42796L70.2843 8.23447L71.1108 9.11899L71.9372 10.0037L72.8136 9.26484C73.2957 8.85867 73.6901 8.46879 73.6901 8.39855C73.6901 8.32832 73.3299 7.89973 72.8898 7.44604L72.0896 6.6213L71.187 7.42796ZM66.9987 8.84761L65.8707 9.8723L66.9192 11.0073C67.4959 11.6315 68.0378 12.1393 68.1235 12.1357C68.209 12.1322 68.7842 11.6736 69.4015 11.1167L70.5239 10.1042L69.4783 8.9564C68.9033 8.32503 68.3638 7.81186 68.2797 7.81575C68.1956 7.81963 67.6191 8.28393 66.9987 8.84761ZM11.7306 8.77678C10.5728 9.18459 9.96801 10.2244 9.99026 11.7687C10.02 13.8392 11.4506 14.9747 13.4896 14.5459C14.5611 14.3206 14.8553 14.1398 14.8553 13.7061C14.8553 13.2727 14.8528 13.2723 14.1459 13.5619C13.5152 13.8203 12.3786 13.8566 11.9509 13.6321C11.5805 13.4379 11.1971 12.7219 11.1971 12.2244V11.8434H13.1237H15.0504L14.9632 11.0153C14.7672 9.15396 13.3823 8.19487 11.7306 8.77678ZM33.555 8.76886C32.3723 9.18937 31.7808 10.1398 31.7808 11.6192C31.7808 13.2128 32.6211 14.3889 33.9033 14.5899C35.2586 14.8024 36.5975 14.0166 36.9398 12.8077C37.2782 11.6129 37.0398 10.1207 36.3996 9.42712C35.7546 8.72821 34.4911 8.43591 33.555 8.76886ZM40.1984 8.70774C39.8437 8.77947 39.2437 8.97254 38.8647 9.13677L38.1758 9.43564V11.9844V14.5332H38.7855H39.3952V12.241V9.94866L39.7834 9.77531C40.3672 9.51454 41.453 9.55609 41.701 9.84869C41.8517 10.0265 41.9248 10.7171 41.9624 12.3225L42.0147 14.5497L42.5721 14.5041L43.1295 14.4585V12.217C43.1295 9.71509 43.0486 9.25333 42.5555 8.94295C42.1019 8.65738 40.9947 8.54679 40.1984 8.70774ZM46.1017 8.72552C45.3966 8.92636 44.611 9.68371 44.4245 10.3424C44.1553 11.2924 44.2394 12.6124 44.6156 13.34C45.0896 14.2569 45.7399 14.5964 47.0079 14.5887C48.3164 14.5808 49.1502 14.2423 49.1502 13.7189C49.1502 13.2754 49.0717 13.2603 48.3353 13.5619C48.0344 13.6852 47.472 13.786 47.0856 13.786C46.1653 13.786 45.492 13.1911 45.492 12.3779V11.8434H47.4116H49.3312L49.2274 11.0588C49.1704 10.6274 49.0096 10.0409 48.8702 9.75544C48.4405 8.87585 47.1972 8.4132 46.1017 8.72552ZM49.762 9.19087C49.8435 9.37587 50.3538 10.6612 50.8961 12.0473L51.882 14.5676L51.591 15.1268C51.4177 15.4599 51.112 15.7623 50.8349 15.8749C50.4684 16.0237 50.3695 16.1554 50.3695 16.494C50.3695 16.8407 50.4361 16.9241 50.7125 16.9236C51.2235 16.9229 51.9584 16.4263 52.3367 15.8262C52.5208 15.534 53.2073 13.846 53.8621 12.0748L55.0528 8.85463H54.4156H53.7784L53.1977 10.76C52.8782 11.8078 52.5685 12.7543 52.5095 12.8633C52.4469 12.9791 52.1 12.188 51.6744 10.958L50.9464 8.85463H50.2802C49.647 8.85463 49.6213 8.87137 49.762 9.19087ZM13.3972 9.74035C13.5434 9.89875 13.7182 10.2686 13.7859 10.5622L13.9086 11.0962H12.5529C11.8073 11.0962 11.1971 11.0333 11.1971 10.9565C11.1971 10.6906 11.5242 9.97481 11.7649 9.71419C12.0987 9.35241 13.0532 9.36765 13.3972 9.74035ZM19.3291 9.71539C19.8106 9.98348 20.024 11.5711 19.7219 12.6376C19.4656 13.5434 19.095 13.8091 18.1627 13.7563L17.3702 13.7113V11.7687V9.82597L17.9037 9.65128C18.3844 9.49377 18.979 9.52052 19.3291 9.71539ZM35.2569 9.80206C36.0686 10.6492 36.0759 12.7067 35.2699 13.4969C34.9449 13.8155 34.2124 13.8763 33.7327 13.6247C32.7785 13.1239 32.7651 10.3399 33.7135 9.63918C34.1278 9.33313 34.8839 9.41278 35.2569 9.80206ZM47.3904 9.54518C47.6884 9.65726 48.0832 10.3666 48.0832 10.7898C48.0832 11.075 47.9922 11.0962 46.7686 11.0962H45.4539L45.5515 10.6177C45.7379 9.70403 46.5515 9.22957 47.3904 9.54518ZM76.3603 10.3934L75.779 10.8861L76.2745 11.4394C76.5471 11.7438 76.8159 11.9928 76.872 11.9928C76.928 11.9928 77.2291 11.7866 77.541 11.5345L78.1082 11.0762L77.6265 10.4884C77.3616 10.1652 77.0991 9.90069 77.0432 9.90069C76.9874 9.90069 76.6801 10.1225 76.3603 10.3934ZM72.724 11.2627L71.8496 12.0267L72.6554 12.8691C73.0988 13.3324 73.4998 13.7113 73.5466 13.7113C73.5936 13.7113 74.0214 13.3709 74.4976 12.9549L75.3633 12.1983L74.5907 11.3484C74.1658 10.8808 73.7687 10.4984 73.7083 10.4984C73.6478 10.4984 73.2049 10.8423 72.724 11.2627ZM68.8342 12.9251L67.6104 13.9893L68.5132 14.9875C69.9085 16.5306 69.7105 16.5018 71.0198 15.3527C71.6502 14.7997 72.1658 14.3047 72.1658 14.2529C72.1658 14.2012 71.6915 13.6418 71.1118 13.0099L70.058 11.861L68.8342 12.9251ZM74.377 14.875L73.4902 15.6649L74.3353 16.5548L75.1801 17.4449L75.9974 16.6989C76.4469 16.2885 76.8147 15.877 76.8147 15.7842C76.8147 15.6397 75.4371 14.0849 75.3091 14.0849C75.2841 14.0849 74.8646 14.4404 74.377 14.875Z" fill="white"/>
</svg>
